<?xml version="1.0" encoding="utf-8"?>
<svg viewBox="0 0 500 500" xmlns="http://www.w3.org/2000/svg">
  <path d="M 105.978 318.427 L 86.056 318.427 L 86.056 348.822 Q 86.056 355.341 82.98 358.71 Q 79.903 362.079 75.216 362.079 Q 70.309 362.079 67.306 358.747 Q 64.303 355.414 64.303 348.969 L 64.303 266.205 Q 64.303 259.027 67.599 255.951 Q 70.895 252.875 78.072 252.875 L 105.978 252.875 Q 118.355 252.875 125.021 254.779 Q 131.612 256.61 136.41 260.858 Q 141.207 265.106 143.697 271.259 Q 146.188 277.411 146.188 285.102 Q 146.188 301.508 136.08 309.967 Q 125.973 318.427 105.978 318.427 Z M 100.704 269.208 L 86.056 269.208 L 86.056 302.02 L 100.704 302.02 Q 108.395 302.02 113.558 300.409 Q 118.722 298.798 121.432 295.136 Q 124.142 291.474 124.142 285.541 Q 124.142 278.436 119.967 273.969 Q 115.279 269.208 100.704 269.208 Z M 245.941 328.021 Q 245.941 337.763 240.924 345.526 Q 235.907 353.29 226.239 357.685 Q 216.571 362.079 203.314 362.079 Q 187.421 362.079 177.094 356.073 Q 169.769 351.752 165.192 344.538 Q 160.614 337.323 160.614 330.512 Q 160.614 326.557 163.361 323.737 Q 166.107 320.917 170.355 320.917 Q 173.798 320.917 176.178 323.114 Q 178.558 325.311 180.243 329.633 Q 182.294 334.76 184.674 338.202 Q 187.055 341.644 191.376 343.878 Q 195.697 346.112 202.728 346.112 Q 212.396 346.112 218.439 341.608 Q 224.481 337.103 224.481 330.365 Q 224.481 325.018 221.222 321.686 Q 217.963 318.353 212.799 316.596 Q 207.636 314.838 198.993 312.86 Q 187.421 310.15 179.62 306.525 Q 171.82 302.899 167.243 296.637 Q 162.665 290.375 162.665 281.073 Q 162.665 272.211 167.499 265.326 Q 172.333 258.441 181.488 254.743 Q 190.643 251.044 203.021 251.044 Q 212.909 251.044 220.123 253.497 Q 227.338 255.951 232.099 260.016 Q 236.859 264.081 239.057 268.549 Q 241.254 273.017 241.254 277.265 Q 241.254 281.146 238.507 284.259 Q 235.761 287.372 231.659 287.372 Q 227.924 287.372 225.983 285.504 Q 224.042 283.637 221.771 279.389 Q 218.842 273.31 214.74 269.904 Q 210.639 266.498 201.557 266.498 Q 193.134 266.498 187.97 270.197 Q 182.807 273.895 182.807 279.096 Q 182.807 282.318 184.564 284.662 Q 186.322 287.006 189.398 288.69 Q 192.474 290.375 195.624 291.327 Q 198.773 292.279 206.024 294.11 Q 215.106 296.234 222.467 298.798 Q 229.828 301.361 234.992 305.023 Q 240.155 308.685 243.048 314.289 Q 245.941 319.892 245.941 328.021 Z" transform="matrix(1.76622, 0, 0, 1.66905, -26.198441, -268.87299)" style="fill: rgb(51, 51, 51);"/>
</svg>